inDegrees=no
num_controls=7
num_derivatives=13
num_iterations=99
num_multipliers=7
num_parameters=0
num_slacks=7
num_states=26
objective=0.224064
objective_accelerations=0.000000
objective_balance=0.003815
objective_effort=0.042489
objective_height=0.172992
objective_ligament=0.004768
solver_duration=1422.184875
status=Solve_Succeeded
success=true
DataType=double
version=3
OpenSimVersion=4.5
endheader
time	/jointset/ground_pelvis/pelvis_tilt/value	/jointset/ground_pelvis/pelvis_tx/value	/jointset/ground_pelvis/pelvis_ty/value	/jointset/hip_l/hip_flexion_l/value	/jointset/hip_l/hip_adduction_l/value	/jointset/hip_l/hip_rotation_l/value	/jointset/back/lumbar_extension/value	/jointset/patellofemoral_l/patellar_flexion_l/value	/jointset/knee_l/knee_flexion_l/value	/jointset/knee_l/knee_adduction_l/value	/jointset/knee_l/knee_rotation_l/value	/jointset/ankle_l/ankle_angle_l/value	/jointset/subtalar_l/subtalar_angle_l/value	/jointset/ground_pelvis/pelvis_tilt/speed	/jointset/ground_pelvis/pelvis_tx/speed	/jointset/ground_pelvis/pelvis_ty/speed	/jointset/hip_l/hip_flexion_l/speed	/jointset/hip_l/hip_adduction_l/speed	/jointset/hip_l/hip_rotation_l/speed	/jointset/back/lumbar_extension/speed	/jointset/patellofemoral_l/patellar_flexion_l/speed	/jointset/knee_l/knee_flexion_l/speed	/jointset/knee_l/knee_adduction_l/speed	/jointset/knee_l/knee_rotation_l/speed	/jointset/ankle_l/ankle_angle_l/speed	/jointset/subtalar_l/subtalar_angle_l/speed	/forceset/tau_hip_flexion_l	/forceset/tau_hip_adduction_l	/forceset/tau_hip_rotation_l	/forceset/tau_knee_flexion_l	/forceset/tau_ankle_angle_l	/forceset/tau_subtalar_angle_l	/forceset/tau_lumbar_extension	lambda_cid13_p0	lambda_cid13_p1	lambda_cid13_p2	lambda_cid13_p3	lambda_cid13_p4	lambda_cid13_p5	lambda_cid14_p0	/jointset/ground_pelvis/pelvis_tilt/accel	/jointset/ground_pelvis/pelvis_tx/accel	/jointset/ground_pelvis/pelvis_ty/accel	/jointset/hip_l/hip_flexion_l/accel	/jointset/hip_l/hip_adduction_l/accel	/jointset/hip_l/hip_rotation_l/accel	/jointset/back/lumbar_extension/accel	/jointset/patellofemoral_l/patellar_flexion_l/accel	/jointset/knee_l/knee_flexion_l/accel	/jointset/knee_l/knee_adduction_l/accel	/jointset/knee_l/knee_rotation_l/accel	/jointset/ankle_l/ankle_angle_l/accel	/jointset/subtalar_l/subtalar_angle_l/accel	gamma_cid13_p0	gamma_cid13_p1	gamma_cid13_p2	gamma_cid13_p3	gamma_cid13_p4	gamma_cid13_p5	gamma_cid14_p0
0.5	-0.2042802722692219	-0.01632745523687196	0.3560758637043242	2.181627011631211	-0.2413134398605689	0.4790763363283057	-0.4362852289486405	2.181639460828053	2.181639460828094	0.09625655218004139	-0.1693778701452598	0.4359711646134254	0.4209324374474946	0.07432092850889296	0.008379092697301822	-0.0007681884293110605	0.0008683182118294277	-0.1474590593256182	-0.1375032782942683	-0.001100476833007223	0.001133012082686574	0.001133012082686347	0.03617249021765227	-0.2644619848280861	-0.01455836549440192	-0.2668206680994241	-0.08355817049273473	-0.03372582892078013	-0.01226823238962865	-0.4169779995980264	0.09607491216087434	0.02037332608581948	0.1044505867980977	0.09043510139462325	0.5344710545586286	-11.1014997241863	-3.254277513231568	-465.6086304843825	-170.3112122487937	-0.01573831547121543	-1.567690511675441	-0.2636692638891298	0.1246350726174115	-0.1162278586631757	2.784801852638996	-1.831311035421654	0.06051864946287491	-0.325215790239425	-0.3252157902394175	3.061452804066589	7.132883346121291	0.03214505059296252	4.943847671595035	-4.14425165819651e-07	-2.630201391924651e-07	6.60122197643111e-07	3.146022405985474e-07	1.100596325018438e-07	2.31129956434991e-07	-3.084761245874204e-07
0.51	-0.2036141128495724	-0.01625640172398295	0.356073506247646	2.181628146263699	-0.2426422686468579	0.4775925340922919	-0.4362923145370365	2.181638773234147	2.181638773234237	0.09679306264719113	-0.1716428710157242	0.4358302420532129	0.418525604869372	0.05901599957105948	0.005877270401248228	0.0001995549362463768	-0.000627345738356181	-0.117939731058552	-0.1595602969229429	-0.0001907997858248958	-0.0009211117890685989	-0.0009211117890688213	0.07181772732296381	-0.1876092328162341	-0.0134351927278565	-0.2137578601938378	-0.08393496311100565	-0.03360351880352237	-0.01252108358615496	-0.4133159891692216	0.09490581939674479	0.01996563488857279	0.1047069406613929	-0.07770446389542338	0.5598525403051452	-10.89866437382695	-3.610082932884859	-463.4317543105733	-168.6644058818937	-0.01574517885562491	-1.496198485501935	-0.2365505955735221	0.0682990618562796	-0.1641900221446243	3.09042777045089	-2.438376834174131	0.1250683907316952	-0.09303979511644923	-0.09303979511643549	3.919236240433761	8.100866616166551	0.180933863902247	5.605698341850753	-2.209978473047619e-07	-2.427287160849312e-07	2.989159385334919e-07	8.948599765764404e-08	7.561523807180692e-08	-1.146064735941517e-08	-1.730482707397668e-07
0.52	-0.2030978635994337	-0.01620898881067634	0.3560779172432896	2.181614733384894	-0.2436649182591349	0.475879065758472	-0.4362865281232899	2.181628038579628	2.181628038579806	0.09770666090072068	-0.1731114652685769	0.4357062573154934	0.4166730405686673	0.04433889460663446	0.003650972780820712	0.0005855020350489566	-0.002041184046475438	-0.08622322452306788	-0.1834364978549679	0.001473923596782781	-0.0008764000397381862	-0.0008764000397384564	0.1115900474950889	-0.1051806613064064	-0.01117080099263211	-0.1559670126158375	-0.08431175572927573	-0.03348120868626461	-0.01277393478268956	-0.4096539787404178	0.0937367266326139	0.01955794369132496	0.1049632945246885	-0.2839572224390324	0.6435566676271396	-10.76412436516335	-3.859930969158807	-461.3103338408325	-166.8296770306321	-0.01575150810278509	-1.442125716993997	-0.2085643287638209	0.008275819266417642	-0.09986273024973744	3.224237506322494	-2.195147496091742	0.2115279165476714	0.09455133397778709	0.09455133397778394	3.886869417429323	8.248047245716361	0.2603888443289825	5.889455606077902	1.556742293064267e-07	-4.024995757852245e-08	-1.153887909528936e-07	-1.240844478695358e-07	-3.847680968065215e-08	-3.295062476510844e-08	6.353521894167656e-08
0.53	-0.2027236204212265	-0.01618207675945322	0.3560838226297982	2.181591894210035	-0.244375955289016	0.4740111144236595	-0.43626061390641	2.18162305323656	2.181623053236625	0.09894271069248355	-0.1738104851878163	0.4356067088771566	0.4153878917131897	0.03078504901311671	0.00181695387187744	0.0005540765881124251	-0.002172714104978515	-0.05711839570265499	-0.1827202588767884	0.003797088335798425	-0.0002447433742692298	-0.0002447433742695466	0.1282735124358599	-0.04080655519279219	-0.00888521258756777	-0.1033272263163295	-0.08569462091847882	-0.03353406883187195	-0.01246850753061128	-0.4067497833909984	0.09272156902336534	0.01851955449978718	0.106171523245347	-0.72800887241274	1.196001491955199	-10.87929699696243	-3.864978915000273	-460.8412038812509	-164.2708869859552	-0.01570624495121304	-1.270665544102385	-0.1580404630819428	-0.01509620931461802	0.08334594972735569	2.583534188631803	2.320016377626968	0.2559360351269305	0.02882405280858927	0.02882405280859932	-0.5428760078006498	4.604570409249335	0.1907731764656594	4.611591284614225	3.062345172571087e-07	4.601775963166907e-08	-2.949454252429917e-07	-1.996942628983566e-07	-8.65601100248476e-08	-1.027498564933952e-07	1.708407439048747e-07
